<?xml version="1.0" encoding="UTF-8" standalone="no"?>
<svg
   xmlns:dc="http://purl.org/dc/elements/1.1/"
   xmlns:cc="http://creativecommons.org/ns#"
   xmlns:rdf="http://www.w3.org/1999/02/22-rdf-syntax-ns#"
   xmlns:svg="http://www.w3.org/2000/svg"
   xmlns="http://www.w3.org/2000/svg"
   xmlns:sodipodi="http://sodipodi.sourceforge.net/DTD/sodipodi-0.dtd"
   xmlns:inkscape="http://www.inkscape.org/namespaces/inkscape"
   viewBox="0 0 282 282"
   version="1.1"
   id="svg1812"
   sodipodi:docname="icon_monolix.svg"
   inkscape:export-filename="/home/esther/workspace/trunk/projects/monolix/resources/www/gui/img/mlx_logo.png"
   inkscape:export-xdpi="272.34"
   inkscape:export-ydpi="272.34"
   inkscape:version="0.92.3 (2405546, 2018-03-11)"
   width="282"
   height="282">
  <metadata
     id="metadata1816">
    <rdf:RDF>
      <cc:Work
         rdf:about="">
        <dc:format>image/svg+xml</dc:format>
        <dc:type
           rdf:resource="http://purl.org/dc/dcmitype/StillImage" />
        <dc:title />
      </cc:Work>
    </rdf:RDF>
  </metadata>
  <sodipodi:namedview
     pagecolor="#ffffff"
     bordercolor="#666666"
     borderopacity="1"
     objecttolerance="10"
     gridtolerance="10"
     guidetolerance="10"
     inkscape:pageopacity="0"
     inkscape:pageshadow="2"
     inkscape:window-width="2501"
     inkscape:window-height="1385"
     id="namedview1814"
     showgrid="false"
     inkscape:zoom="3.091"
     inkscape:cx="-24.62"
     inkscape:cy="140.9"
     inkscape:window-x="1979"
     inkscape:window-y="27"
     inkscape:window-maximized="1"
     inkscape:current-layer="svg1812"
     inkscape:pagecheckerboard="true" />
  <defs
     id="defs1796">
    <style
       id="style1794">.cls-1{fill:#00a4c6;fill-rule:evenodd;}.cls-2{opacity:0.18;}.cls-3{fill:#fff;}</style>
  </defs>
  <g
     id="Layer_2"
     data-name="Layer 2"
     transform="translate(16.8,0.09)">
    <g
       id="svg">
      <path
         class="cls-1"
         d="M 0.53,205.88 0,78.21 A 13.22,13.22 0 0 1 6.53,66.76 L 117,1.82 a 13.23,13.23 0 0 1 13.21,-0.11 l 110.95,62.74 a 13.24,13.24 0 0 1 6.72,11.46 l 0.52,127.66 A 13.23,13.23 0 0 1 241.88,215 l -110.51,65 a 13.23,13.23 0 0 1 -13.21,0.11 L 7.24,217.33 A 13.22,13.22 0 0 1 0.53,205.88"
         id="path1798"
         inkscape:connector-curvature="0"
         style="fill:#00a4c6;fill-rule:evenodd" />
      <g
         class="cls-2"
         id="g1802"
         style="opacity:0.18">
        <path
           class="cls-3"
           d="m 118.4,10.92 -103.66,60 A 12.34,12.34 0 0 0 8.57,81.54 L 8.25,200.81 a 12.34,12.34 0 0 0 6.2,10.75 l 103.21,59.32 a 12.36,12.36 0 0 0 12.35,0 l 103.65,-60 a 12.37,12.37 0 0 0 6.17,-10.67 L 240.16,81 A 12.37,12.37 0 0 0 234,70.23 L 130.74,10.91 a 12.33,12.33 0 0 0 -12.34,0"
           id="path1800"
           inkscape:connector-curvature="0"
           style="fill:#ffffff" />
      </g>
      <path
         class="cls-1"
         d="M 11.85,199 12.16,83.43 a 12,12 0 0 1 6,-10.33 L 118.58,15 a 12,12 0 0 1 12,0 l 100,57.47 a 12,12 0 0 1 6,10.42 l -0.32,115.56 a 12,12 0 0 1 -6,10.33 l -100.43,58.04 a 12,12 0 0 1 -12,0 l -100,-57.48 a 12,12 0 0 1 -6,-10.41"
         id="path1804"
         inkscape:connector-curvature="0"
         style="fill:#00a4c6;fill-rule:evenodd" />
      <path
         class="cls-3"
         d="M 168.07,123 A 14.89,14.89 0 1 0 153.18,108.11 14.9,14.9 0 0 0 168.07,123 Z"
         id="path1806"
         inkscape:connector-curvature="0"
         style="fill:#ffffff" />
      <path
         class="cls-3"
         d="m 74.93,206.5 c 26,-26.53 59,-58.56 66.66,-65 l 5.87,26.63 0.56,-36.56 -40.21,-0.95 29.07,6.24 C 123.35,151 97.64,177.1 71.12,203.5 53.79,176.5 49.12,136.08 62.53,79.77 L 45.82,70.12 C 33.41,75.22 21.94,82 12.14,92.73 l -0.09,33.35 a 124.29,124.29 0 0 1 14.26,-17 v 0 c 2.69,50.28 17.69,80.48 42.56,96.56 -6.73,6.25 -13.85,13.12 -21.68,20.58 l 5,2.87 c 7.18,-7.32 14.22,-14.42 20.23,-20.47 15,20.17 38.51,36.82 80,45.16 L 186,234.36 C 144,233.71 106.32,224.51 74.93,206.5 Z"
         id="path1808"
         inkscape:connector-curvature="0"
         style="fill:#ffffff" />
    </g>
  </g>
</svg>
