<svg width="1440" height="1024" viewBox="0 0 1440 1024" fill="none" xmlns="http://www.w3.org/2000/svg">
<g clip-path="url(#clip0_1067_713)">
<rect width="1440" height="1024" fill="#EDF3F7"/>
<path opacity="0.3" d="M1154.5 656.34C1301.98 614.343 1415.21 472.712 1385.34 435.197C1355.47 397.682 1184.96 314.947 1035.11 336.139C885.27 357.33 814.77 449.975 853.768 557.598C892.766 665.221 1007.02 698.337 1154.5 656.34Z" fill="#7D97BC"/>
<path d="M896.827 552.922L885.067 495.941L905.151 492.718C909.153 492.076 912.595 492.233 915.478 493.189C918.357 494.126 920.669 495.642 922.416 497.738C924.158 499.816 925.316 502.246 925.891 505.028C926.396 507.476 926.374 509.569 925.824 511.305C925.293 513.038 924.412 514.482 923.183 515.638C921.972 516.79 920.589 517.721 919.035 518.43L919.15 518.987C920.931 518.816 922.824 519.144 924.831 519.972C926.837 520.8 928.653 522.157 930.278 524.042C931.904 525.928 933.027 528.373 933.647 531.378C934.236 534.234 934.112 536.908 933.274 539.4C932.436 541.891 930.742 544.031 928.194 545.82C925.646 547.608 922.109 548.865 917.584 549.591L896.827 552.922ZM902.52 545.685L916.321 543.47C920.865 542.741 923.911 541.352 925.458 539.302C927.021 537.231 927.544 534.944 927.027 532.44C926.629 530.511 925.766 528.81 924.438 527.336C923.106 525.844 921.422 524.754 919.387 524.065C917.348 523.357 915.075 523.205 912.569 523.607L898.432 525.875L902.52 545.685ZM897.191 519.865L910.095 517.795C912.189 517.459 913.994 516.748 915.508 515.662C917.041 514.572 918.151 513.206 918.835 511.564C919.539 509.918 919.684 508.093 919.271 506.09C918.754 503.586 917.437 501.603 915.319 500.141C913.198 498.661 910.229 498.227 906.415 498.839L893.287 500.946L897.191 519.865ZM947.303 544.823L938.484 502.088L945.104 501.026L953.923 543.761L947.303 544.823ZM940.38 494.425C939.09 494.632 937.887 494.375 936.772 493.653C935.676 492.928 935.001 491.954 934.749 490.729C934.496 489.505 934.738 488.384 935.474 487.365C936.229 486.343 937.252 485.729 938.542 485.522C939.833 485.315 941.026 485.574 942.122 486.298C943.237 487.02 943.921 487.993 944.174 489.217C944.426 490.441 944.175 491.564 943.42 492.586C942.684 493.605 941.67 494.218 940.38 494.425ZM983.735 539.898C979.845 540.522 976.243 540.152 972.928 538.786C969.632 537.418 966.821 535.215 964.494 532.178C962.185 529.137 960.576 525.409 959.665 520.995C958.746 516.543 958.757 512.527 959.699 508.946C960.659 505.361 962.409 502.417 964.947 500.113C967.504 497.805 970.727 496.34 974.617 495.716C978.507 495.092 982.1 495.464 985.396 496.832C988.711 498.197 991.524 500.41 993.836 503.469C996.167 506.525 997.792 510.279 998.711 514.73C999.622 519.145 999.595 523.135 998.631 526.701C997.685 530.263 995.934 533.198 993.377 535.506C990.839 537.81 987.625 539.274 983.735 539.898ZM982.518 534C985.473 533.526 987.749 532.385 989.346 530.576C990.943 528.768 991.947 526.566 992.358 523.97C992.769 521.375 992.68 518.649 992.091 515.793C991.501 512.936 990.494 510.348 989.068 508.028C987.643 505.708 985.82 503.941 983.598 502.726C981.377 501.511 978.789 501.14 975.834 501.614C972.88 502.088 970.606 503.239 969.012 505.066C967.419 506.893 966.418 509.113 966.011 511.727C965.604 514.341 965.695 517.076 966.284 519.933C966.874 522.789 967.879 525.368 969.301 527.67C970.723 529.971 972.542 531.72 974.76 532.916C976.977 534.113 979.563 534.474 982.518 534ZM1008.04 476.211L1019.8 533.193L1013.18 534.255L1001.42 477.274L1008.04 476.211ZM1049.61 529.329C1045.72 529.953 1042.12 529.583 1038.8 528.218C1035.51 526.849 1032.7 524.646 1030.37 521.609C1028.06 518.568 1026.45 514.841 1025.54 510.426C1024.62 505.974 1024.63 501.958 1025.58 498.377C1026.54 494.793 1028.29 491.848 1030.82 489.544C1033.38 487.237 1036.6 485.771 1040.49 485.147C1044.38 484.523 1047.98 484.895 1051.27 486.263C1054.59 487.629 1057.4 489.841 1059.71 492.9C1062.04 495.956 1063.67 499.71 1064.59 504.162C1065.5 508.576 1065.47 512.566 1064.51 516.132C1063.56 519.695 1061.81 522.63 1059.25 524.937C1056.72 527.241 1053.5 528.705 1049.61 529.329ZM1048.39 523.431C1051.35 522.957 1053.62 521.816 1055.22 520.007C1056.82 518.199 1057.82 515.997 1058.23 513.402C1058.65 510.806 1058.56 508.08 1057.97 505.224C1057.38 502.367 1056.37 499.779 1054.94 497.459C1053.52 495.139 1051.7 493.372 1049.47 492.157C1047.25 490.942 1044.67 490.571 1041.71 491.045C1038.76 491.519 1036.48 492.67 1034.89 494.497C1033.29 496.324 1032.29 498.544 1031.89 501.158C1031.48 503.772 1031.57 506.507 1032.16 509.364C1032.75 512.22 1033.76 514.799 1035.18 517.101C1036.6 519.402 1038.42 521.151 1040.64 522.347C1042.85 523.544 1045.44 523.905 1048.39 523.431ZM1099.94 537.812C1096.74 538.325 1093.91 538.358 1091.44 537.911C1088.97 537.482 1086.84 536.732 1085.03 535.661C1083.25 534.606 1081.76 533.408 1080.55 532.069L1085.07 527.55C1085.83 528.233 1086.77 529.002 1087.89 529.856C1089.02 530.73 1090.45 531.41 1092.2 531.897C1093.96 532.399 1096.14 532.442 1098.74 532.025C1102.22 531.467 1104.92 530.171 1106.84 528.139C1108.76 526.107 1109.35 523.31 1108.61 519.749L1106.82 511.068L1106.26 511.158C1105.94 512.015 1105.44 513.09 1104.78 514.384C1104.14 515.657 1103.07 516.872 1101.59 518.029C1100.13 519.165 1097.99 519.958 1095.19 520.408C1091.71 520.966 1088.42 520.651 1085.31 519.463C1082.23 518.271 1079.56 516.247 1077.31 513.388C1075.07 510.527 1073.5 506.871 1072.58 502.419C1071.68 498.042 1071.67 494.106 1072.55 490.611C1073.43 487.097 1075.07 484.228 1077.47 482.003C1079.86 479.76 1082.88 478.347 1086.5 477.765C1089.31 477.315 1091.63 477.422 1093.47 478.085C1095.32 478.727 1096.8 479.562 1097.92 480.59C1099.06 481.596 1099.95 482.431 1100.59 483.094L1101.26 482.986L1099.86 476.198L1106.25 475.172L1115.33 519.132C1116.08 522.804 1115.86 525.926 1114.65 528.496C1113.46 531.081 1111.57 533.138 1108.97 534.667C1106.39 536.212 1103.38 537.26 1099.94 537.812ZM1094.87 514.365C1097.52 513.939 1099.64 512.977 1101.23 511.477C1102.81 509.977 1103.85 508.019 1104.33 505.603C1104.82 503.188 1104.74 500.403 1104.09 497.25C1103.45 494.171 1102.42 491.528 1101 489.323C1099.58 487.117 1097.82 485.493 1095.71 484.452C1093.6 483.41 1091.2 483.106 1088.51 483.538C1085.7 483.988 1083.51 485.068 1081.93 486.777C1080.37 488.484 1079.37 490.6 1078.92 493.124C1078.49 495.645 1078.58 498.352 1079.18 501.246C1079.79 504.214 1080.8 506.763 1082.21 508.895C1083.63 511.005 1085.4 512.56 1087.52 513.562C1089.65 514.542 1092.1 514.809 1094.87 514.365ZM1134.76 531.305C1133.64 531.485 1132.62 531.553 1131.7 531.508C1130.79 531.483 1130.15 531.413 1129.78 531.3L1130.26 525.243C1131.96 525.393 1133.41 525.313 1134.62 525.004C1135.83 524.695 1136.81 523.972 1137.56 522.836C1138.34 521.716 1138.9 520.006 1139.26 517.707L1139.8 514.17L1115 473.768L1122.19 472.615L1141.11 504.762L1141.56 504.69L1146.42 468.727L1153.6 467.575L1145.42 519.477C1145.05 521.817 1144.41 523.807 1143.49 525.449C1142.58 527.109 1141.39 528.421 1139.93 529.384C1138.48 530.344 1136.76 530.984 1134.76 531.305ZM1194.27 505.201L1182.51 448.22L1201.92 445.106C1206.41 444.386 1210.25 444.555 1213.45 445.614C1216.64 446.654 1219.2 448.381 1221.12 450.793C1223.05 453.204 1224.36 456.089 1225.05 459.446C1225.75 462.804 1225.67 465.892 1224.82 468.71C1223.97 471.529 1222.27 473.91 1219.72 475.853C1217.16 477.777 1213.65 479.097 1209.2 479.811L1193.49 482.331L1192.21 476.098L1207.69 473.614C1210.76 473.122 1213.14 472.281 1214.82 471.091C1216.53 469.897 1217.63 468.417 1218.14 466.65C1218.66 464.861 1218.68 462.826 1218.21 460.544C1217.74 458.263 1216.9 456.338 1215.68 454.769C1214.47 453.201 1212.83 452.105 1210.75 451.48C1208.66 450.837 1206.07 450.765 1202.96 451.263L1190.73 453.225L1201.23 504.085L1194.27 505.201ZM1216.03 475.266L1235.45 498.595L1227.37 499.891L1208.18 476.526L1216.03 475.266ZM1260.33 495.408C1256.55 496.014 1253.16 495.85 1250.14 494.915C1247.13 493.98 1244.64 492.435 1242.67 490.279C1240.7 488.124 1239.39 485.506 1238.76 482.427C1238.27 480.053 1238.34 477.867 1238.97 475.869C1239.61 473.849 1240.67 471.906 1242.14 470.042C1243.63 468.156 1245.38 466.226 1247.41 464.253L1254.45 456.8C1255.86 455.481 1256.92 454.141 1257.65 452.78C1258.39 451.415 1258.56 449.759 1258.16 447.811C1257.86 446.365 1256.93 445.068 1255.36 443.921C1253.81 442.771 1251.99 442.362 1249.92 442.695C1248.46 442.929 1247.24 443.507 1246.27 444.429C1245.32 445.329 1244.64 446.396 1244.24 447.63C1243.85 448.842 1243.78 450.041 1244.03 451.228C1244.3 452.564 1244.95 453.859 1245.96 455.115C1246.99 456.349 1248.22 457.589 1249.65 458.834C1251.1 460.058 1252.6 461.312 1254.14 462.598L1287.1 490.308L1279.13 491.587L1251.99 469.037C1249.47 466.949 1247.19 465.055 1245.14 463.352C1243.09 461.65 1241.38 459.922 1240.01 458.168C1238.64 456.413 1237.73 454.423 1237.27 452.197C1236.74 449.637 1236.85 447.302 1237.59 445.189C1238.35 443.056 1239.66 441.285 1241.51 439.876C1243.38 438.445 1245.72 437.505 1248.52 437.055C1251.4 436.593 1253.99 436.752 1256.3 437.532C1258.6 438.293 1260.5 439.493 1262 441.131C1263.49 442.75 1264.45 444.617 1264.89 446.731C1265.45 449.458 1265.26 451.932 1264.31 454.155C1263.36 456.377 1261.88 458.539 1259.88 460.642L1250.18 470.937C1247.99 473.243 1246.62 475.36 1246.07 477.287C1245.52 479.215 1245.33 480.568 1245.49 481.347C1245.86 483.128 1246.67 484.713 1247.92 486.102C1249.17 487.492 1250.75 488.523 1252.64 489.196C1254.54 489.869 1256.63 490.023 1258.91 489.657C1261.08 489.309 1263.1 488.515 1264.97 487.276C1266.84 486.019 1268.42 484.385 1269.73 482.374C1271.05 480.361 1271.94 478.052 1272.41 475.447C1272.9 472.84 1272.82 470.006 1272.19 466.945L1278.59 465.919C1279.37 469.703 1279.57 472.862 1279.18 475.396C1278.8 477.93 1278.19 479.962 1277.37 481.493C1276.54 483.024 1275.86 484.177 1275.33 484.953C1275.16 485.267 1275.01 485.579 1274.88 485.887C1274.75 486.195 1274.61 486.506 1274.44 486.821C1273.01 489.177 1270.99 491.091 1268.38 492.564C1265.76 494.019 1263.08 494.967 1260.33 495.408ZM1313.05 486.145L1295.32 488.989L1283.57 432.008L1302.08 429.038C1307.65 428.144 1312.65 428.519 1317.09 430.165C1321.52 431.792 1325.23 434.559 1328.22 438.468C1331.21 442.358 1333.31 447.252 1334.53 453.151C1335.75 459.086 1335.74 464.367 1334.49 468.994C1333.24 473.602 1330.81 477.383 1327.21 480.337C1323.61 483.273 1318.89 485.209 1313.05 486.145ZM1301.02 481.752L1311.34 480.096C1316.09 479.334 1319.84 477.793 1322.59 475.474C1325.33 473.156 1327.13 470.195 1327.97 466.591C1328.81 462.988 1328.75 458.868 1327.79 454.231C1326.85 449.631 1325.27 445.792 1323.07 442.715C1320.87 439.619 1318.08 437.422 1314.7 436.125C1311.32 434.809 1307.38 434.511 1302.89 435.231L1291.78 437.013L1301.02 481.752Z" fill="white"/>
</g>
<defs>
<clipPath id="clip0_1067_713">
<rect width="1440" height="1024" fill="white"/>
</clipPath>
</defs>
</svg>
