<svg width="1440" height="1024" viewBox="0 0 1440 1024" fill="none" xmlns="http://www.w3.org/2000/svg">
<g clip-path="url(#clip0_1065_700)">
<rect width="1440" height="1024" fill="#EDF3F7"/>
<path opacity="0.3" d="M1188.28 660.91C1329.33 612.242 1431.91 466.888 1400.94 431.311C1369.98 395.735 1200.06 322.391 1055.63 350.635C911.209 378.878 847.568 473.785 891.055 578.127C934.542 682.47 1047.23 709.579 1188.28 660.91Z" fill="#8A151D"/>
<path d="M961.904 563.14L947.541 506.759L981.929 499.658L983.472 505.715L955.983 511.39L960.837 530.441L986.544 525.133L988.087 531.189L962.379 536.498L967.261 555.658L995.194 549.891L996.737 555.947L961.904 563.14ZM1008.73 553.471L994.365 497.09L1001.27 495.665L1014.09 545.99L1040.57 540.521L1042.11 546.577L1008.73 553.471ZM1083.62 478.661L1097.98 535.042L1091.3 536.421L1048.98 498.564L1048.42 498.679L1059.7 542.947L1052.8 544.371L1038.44 487.99L1045.11 486.612L1087.58 524.555L1088.14 524.44L1076.83 480.062L1083.62 478.661ZM1116.01 469.192L1114.84 540.486L1108.83 541.727L1110 470.432L1116.01 469.192ZM1139.72 526.425L1125.35 470.043L1132.25 468.619L1145.07 518.943L1171.56 513.474L1173.1 519.531L1139.72 526.425ZM1176.32 459.519L1190.69 515.9L1183.79 517.325L1169.42 460.944L1176.32 459.519ZM1190.16 456.662L1198.39 454.962L1229.68 497.764L1230.35 497.626L1237.79 446.827L1246.02 445.127L1260.39 501.508L1253.93 502.841L1243.02 460.004L1242.46 460.119L1235.57 506.632L1229.34 507.919L1200.62 468.759L1200.06 468.874L1210.97 511.711L1204.52 513.043L1190.16 456.662ZM1294.61 449.931C1293.57 447.21 1291.66 445.324 1288.89 444.273C1286.13 443.221 1283.02 443.052 1279.57 443.764C1277.05 444.285 1274.94 445.145 1273.25 446.343C1271.59 447.537 1270.4 448.95 1269.71 450.582C1269.03 452.209 1268.92 453.922 1269.38 455.721C1269.76 457.226 1270.45 458.445 1271.45 459.379C1272.46 460.29 1273.64 460.985 1274.97 461.463C1276.3 461.923 1277.65 462.252 1279.03 462.451C1280.4 462.631 1281.65 462.749 1282.78 462.806L1288.96 463.153C1290.54 463.232 1292.33 463.423 1294.32 463.727C1296.33 464.027 1298.32 464.592 1300.28 465.422C1302.27 466.23 1304.04 467.429 1305.59 469.02C1307.15 470.611 1308.27 472.728 1308.94 475.371C1309.72 478.417 1309.61 481.337 1308.62 484.13C1307.65 486.918 1305.82 489.355 1303.11 491.441C1300.41 493.523 1296.88 495.016 1292.5 495.92C1288.42 496.762 1284.72 496.84 1281.4 496.154C1278.1 495.463 1275.3 494.129 1273 492.151C1270.72 490.168 1269.08 487.658 1268.07 484.621L1275.19 483.15C1275.92 485.241 1277.09 486.854 1278.71 487.988C1280.34 489.1 1282.22 489.795 1284.34 490.072C1286.47 490.326 1288.67 490.22 1290.93 489.753C1293.57 489.209 1295.82 488.299 1297.7 487.022C1299.58 485.726 1300.94 484.19 1301.77 482.414C1302.6 480.62 1302.76 478.695 1302.23 476.639C1301.76 474.767 1300.84 473.353 1299.48 472.397C1298.13 471.441 1296.49 470.773 1294.58 470.396C1292.67 470.018 1290.64 469.76 1288.5 469.623L1280.98 469.089C1276.21 468.741 1272.22 467.661 1269.03 465.848C1265.83 464.035 1263.75 461.229 1262.78 457.43C1261.98 454.273 1262.14 451.342 1263.27 448.637C1264.41 445.909 1266.28 443.591 1268.88 441.683C1271.49 439.753 1274.61 438.412 1278.25 437.662C1281.92 436.903 1285.35 436.881 1288.54 437.594C1291.72 438.289 1294.43 439.584 1296.67 441.478C1298.93 443.369 1300.47 445.727 1301.29 448.552L1294.61 449.931Z" fill="white"/>
</g>
<defs>
<clipPath id="clip0_1065_700">
<rect width="1440" height="1024" fill="white"/>
</clipPath>
</defs>
</svg>
