<svg width="575" height="453" viewBox="0 0 575 453" fill="none" xmlns="http://www.w3.org/2000/svg">
<path d="M316.929 367.988C453.344 309.511 546.54 175.677 524.545 133.383C502.55 91.089 334.838 43.8919 214.798 72.5299C94.759 101.168 15.4067 184.954 47.4714 284.866C79.536 384.778 180.515 426.465 316.929 367.988Z" fill="#664D84"/>
<path opacity="0.9" d="M118.234 252.711C116.825 250.749 115.261 249.088 113.541 247.725C111.837 246.335 109.987 245.276 107.993 244.549C106.019 243.816 103.923 243.444 101.702 243.433C99.4808 243.421 97.168 243.797 94.7633 244.56C90.8203 245.81 87.5577 247.965 84.9754 251.025C82.3931 254.085 80.7772 257.899 80.1278 262.468C79.4784 267.037 80.0672 272.203 81.8944 277.966C83.7215 283.729 86.2277 288.287 89.4128 291.64C92.598 294.993 96.1599 297.166 100.099 298.158C104.037 299.151 108.065 298.994 112.181 297.689C115.994 296.48 119.094 294.603 121.482 292.058C123.885 289.484 125.425 286.445 126.101 282.94C126.793 279.406 126.493 275.603 125.202 271.53L127.837 271.267L107.819 277.614L105.552 270.465L130.899 262.428L133.166 269.577C134.904 275.059 135.245 280.196 134.19 284.989C133.156 289.775 130.946 293.933 127.559 297.463C124.187 300.964 119.857 303.552 114.571 305.228C108.679 307.097 103.061 307.352 97.7191 305.994C92.3987 304.629 87.6822 301.785 83.5697 297.462C79.4789 293.132 76.3207 287.458 74.0952 280.439C72.426 275.174 71.6292 270.217 71.7048 265.568C71.7952 260.89 72.6698 256.655 74.3284 252.863C75.9871 249.07 78.3422 245.82 81.3937 243.112C84.4453 240.404 88.105 238.374 92.3729 237.02C95.8825 235.908 99.3221 235.401 102.692 235.501C106.076 235.572 109.265 236.194 112.26 237.367C115.269 238.511 117.998 240.161 120.446 242.318C122.887 244.452 124.923 247.037 126.553 250.073L118.234 252.711ZM175.471 286.062C170.661 287.587 166.176 287.841 162.015 286.824C157.868 285.778 154.245 283.637 151.144 280.4C148.058 277.134 145.705 272.945 144.084 267.832C142.463 262.72 141.966 257.918 142.592 253.428C143.234 248.909 144.887 245.023 147.551 241.77C150.23 238.489 153.822 236.134 158.329 234.705C160.928 233.881 163.633 233.5 166.443 233.563C169.252 233.626 172.006 234.303 174.704 235.593C177.395 236.862 179.863 238.893 182.107 241.686C184.352 244.479 186.213 248.204 187.69 252.862L188.72 256.112L150.244 268.311L148.142 261.682L178.819 251.955C177.926 249.139 176.566 246.805 174.739 244.952C172.933 243.093 170.799 241.85 168.335 241.224C165.893 240.592 163.286 240.715 160.513 241.594C157.458 242.563 155.056 244.159 153.305 246.383C151.569 248.579 150.487 251.068 150.058 253.85C149.629 256.633 149.85 259.4 150.723 262.151L152.124 266.571C153.319 270.34 154.982 273.33 157.113 275.539C159.259 277.72 161.718 279.122 164.491 279.745C167.256 280.346 170.188 280.155 173.286 279.173C175.301 278.534 177.031 277.676 178.478 276.597C179.939 275.49 181.083 274.174 181.911 272.648C182.731 271.1 183.192 269.357 183.292 267.417L191.361 267.148C191.378 269.908 190.768 272.534 189.531 275.024C188.287 277.493 186.479 279.687 184.108 281.607C181.729 283.506 178.85 284.991 175.471 286.062ZM205.624 242.312L215.144 272.339L207.475 274.771L191.649 224.856L199.058 222.507L201.531 230.306L202.181 230.1C202.547 227.194 203.678 224.594 205.573 222.301C207.462 219.985 210.291 218.23 214.06 217.035C217.44 215.963 220.617 215.719 223.591 216.302C226.559 216.863 229.19 218.317 231.484 220.666C233.771 222.992 235.588 226.279 236.935 230.525L246.991 262.242L239.322 264.673L229.43 233.476C228.187 229.555 226.2 226.823 223.47 225.281C220.733 223.717 217.588 223.498 214.035 224.625C211.587 225.401 209.567 226.625 207.975 228.298C206.406 229.964 205.391 231.991 204.932 234.377C204.473 236.764 204.703 239.409 205.624 242.312ZM281.613 252.409C277.106 253.837 272.813 254.019 268.731 252.952C264.672 251.879 261.077 249.717 257.948 246.465C254.841 243.206 252.469 238.999 250.835 233.843C249.186 228.643 248.689 223.806 249.345 219.33C250.021 214.848 251.71 210.998 254.409 207.782C257.131 204.559 260.744 202.233 265.251 200.804C269.757 199.375 274.04 199.198 278.099 200.271C282.181 201.337 285.779 203.51 288.893 206.791C292.029 210.064 294.421 214.301 296.07 219.5C297.705 224.656 298.18 229.465 297.496 233.925C296.834 238.379 295.143 242.218 292.421 245.441C289.722 248.657 286.119 250.98 281.613 252.409ZM279.428 245.519C282.851 244.434 285.389 242.664 287.043 240.208C288.696 237.753 289.6 234.927 289.755 231.731C289.91 228.534 289.458 225.268 288.401 221.932C287.343 218.595 285.826 215.655 283.851 213.11C281.876 210.565 279.502 208.755 276.729 207.679C273.956 206.603 270.858 206.608 267.435 207.693C264.012 208.779 261.477 210.56 259.831 213.037C258.184 215.514 257.287 218.362 257.139 221.58C256.991 224.798 257.446 228.075 258.504 231.411C259.562 234.747 261.075 237.677 263.043 240.2C265.011 242.723 267.378 244.512 270.144 245.566C272.911 246.62 276.005 246.605 279.428 245.519ZM315.607 240.486L299.781 190.571L307.19 188.222L309.663 196.021L310.313 195.815C310.508 192.82 311.531 190.219 313.382 188.011C315.226 185.781 317.773 184.151 321.023 183.121C324.316 182.077 327.293 181.955 329.955 182.756C332.632 183.529 335.011 185.052 337.09 187.325L337.61 187.16C338.071 184.177 339.339 181.521 341.415 179.194C343.484 176.846 346.305 175.105 349.88 173.971C354.343 172.556 358.436 172.796 362.16 174.691C365.878 176.564 368.667 180.436 370.528 186.307L381.12 219.714L373.451 222.146L362.859 188.739C361.692 185.056 359.85 182.743 357.333 181.801C354.817 180.858 352.194 180.819 349.464 181.685C345.955 182.798 343.573 184.721 342.318 187.456C341.056 190.168 340.937 193.139 341.96 196.367L352.263 228.863L344.464 231.336L333.625 197.15C332.725 194.312 331.08 192.318 328.689 191.169C326.291 189.998 323.64 189.873 320.737 190.793C318.744 191.425 317.049 192.547 315.653 194.158C314.278 195.762 313.359 197.675 312.895 199.896C312.445 202.089 312.609 204.409 313.385 206.857L323.277 238.054L315.607 240.486ZM395.143 215.268L379.317 165.353L386.986 162.922L402.812 212.836L395.143 215.268ZM380.578 155.798C379.084 156.272 377.633 156.171 376.227 155.496C374.843 154.815 373.924 153.759 373.47 152.329C373.017 150.899 373.16 149.507 373.899 148.152C374.659 146.791 375.787 145.873 377.281 145.399C378.776 144.925 380.216 145.029 381.6 145.71C383.006 146.385 383.936 147.437 384.389 148.867C384.843 150.297 384.689 151.693 383.929 153.054C383.19 154.409 382.073 155.324 380.578 155.798ZM437.466 202.993C432.787 204.477 428.407 204.65 424.326 203.511C420.246 202.373 416.681 200.154 413.632 196.853C410.583 193.552 408.268 189.41 406.688 184.427C405.081 179.358 404.594 174.589 405.228 170.12C405.876 165.623 407.532 161.748 410.196 158.495C412.875 155.214 416.468 152.859 420.974 151.43C424.484 150.317 427.853 149.964 431.081 150.371C434.31 150.778 437.194 151.866 439.734 153.636C442.274 155.405 444.255 157.781 445.678 160.764L438.009 163.195C436.702 161.106 434.764 159.503 432.193 158.387C429.636 157.243 426.668 157.206 423.289 158.278C420.299 159.226 417.925 160.837 416.166 163.111C414.422 165.357 413.369 168.087 413.005 171.302C412.657 174.488 413.08 177.966 414.275 181.735C415.498 185.592 417.169 188.757 419.289 191.232C421.43 193.701 423.868 195.372 426.6 196.246C429.355 197.113 432.249 197.066 435.282 196.104C437.275 195.472 438.974 194.552 440.379 193.343C441.784 192.135 442.844 190.702 443.558 189.045C444.273 187.388 444.58 185.574 444.479 183.603L452.148 181.171C452.649 184.255 452.418 187.249 451.456 190.153C450.508 193.029 448.856 195.603 446.501 197.875C444.161 200.12 441.149 201.825 437.466 202.993ZM491.05 142.229L484.779 146.363C483.982 145.352 482.989 144.439 481.801 143.624C480.627 142.78 479.212 142.227 477.555 141.966C475.899 141.704 473.955 141.927 471.724 142.635C468.669 143.603 466.347 145.114 464.757 147.168C463.181 149.194 462.734 151.279 463.414 153.424C464.018 155.33 465.189 156.616 466.926 157.281C468.663 157.946 471.121 158.18 474.301 157.983L482.287 157.453C487.093 157.121 490.944 157.724 493.84 159.262C496.729 160.778 498.726 163.28 499.832 166.768C500.739 169.628 500.726 172.445 499.794 175.22C498.883 177.989 497.172 180.486 494.659 182.713C492.147 184.941 488.952 186.669 485.074 187.899C479.983 189.513 475.418 189.744 471.382 188.592C467.345 187.44 464.209 184.882 461.974 180.917L468.676 176.789C470.222 179.256 472.171 180.855 474.525 181.587C476.901 182.312 479.659 182.176 482.801 181.18C486.375 180.047 488.973 178.389 490.593 176.206C492.229 173.995 492.707 171.817 492.026 169.672C491.477 167.939 490.41 166.68 488.826 165.894C487.235 165.088 485.09 164.79 482.392 165.002L473.454 165.69C468.54 166.056 464.649 165.442 461.783 163.847C458.932 162.224 456.96 159.69 455.868 156.245C454.975 153.429 454.976 150.687 455.871 148.019C456.787 145.344 458.425 142.953 460.785 140.846C463.166 138.732 466.112 137.118 469.622 136.005C474.561 134.439 478.782 134.293 482.286 135.566C485.811 136.833 488.732 139.054 491.05 142.229Z" fill="white"/>
</svg>
